<svg width="56" height="56" viewBox="0 0 56 56" fill="none" xmlns="http://www.w3.org/2000/svg">
<g clip-path="url(#clip0_196_2478)">
<path d="M54.7414 50.0415C53.8762 49.027 52.6009 48.4542 51.2759 48.4155C49.1054 48.2424 47.8325 45.7158 49.0118 43.8685L54.7065 34.9476C56.1632 32.6661 55.2638 29.6583 52.9344 28.3884C53.3053 27.8064 53.5476 27.4141 53.6281 27.2611C54.6264 25.3654 53.8764 22.9519 51.9805 21.9546C50.0629 20.9458 47.6813 21.6846 46.672 23.6013C46.6058 23.7269 46.4655 24.0336 46.264 24.4897L44.6272 23.5559C43.5144 22.9262 43.0203 21.5449 43.6746 20.3877C44.1934 19.4695 42.7737 18.6668 42.2544 19.5848C41.1862 21.4745 41.9205 23.9655 43.8301 24.9793L45.6097 25.9946C44.6469 28.2316 43.156 31.7622 41.5447 35.5988C40.4043 33.5479 39.2487 31.5022 38.7334 29.1895C37.4216 23.3023 40.4164 17.7451 43.5189 13.0853C44.3654 11.8141 44.5434 10.6307 44.0481 9.56772C42.8739 7.04784 38.2014 6.21948 34.262 5.77925C31.9594 5.52195 31.8602 4.00867 31.8602 2.08464C31.8602 -0.700479 24.1389 -0.689278 24.1389 2.08464C24.1389 3.9307 24.1077 5.5189 21.8429 5.76414C17.7417 6.20719 12.8879 7.03794 11.7472 9.55108C11.438 10.2323 11.2786 11.3432 12.2753 12.7661C14.185 15.4925 15.5347 17.9506 16.4015 20.2808C16.8645 21.5255 17.1887 22.7419 17.3778 23.9259L15.9953 23.9564C15.9847 23.9566 15.9742 23.957 15.9635 23.9577C9.67355 24.3415 5.15808 26.1532 2.5425 29.3427C0.653167 31.6464 -0.152463 34.6708 0.269818 37.8642V49.4117C0.269818 50.8969 1.26478 52.5394 2.93129 53.8051C4.79453 55.2204 7.30908 55.9998 10.0115 55.9998C15.9196 55.9998 21.3294 51.2044 21.5568 51.0003C21.7291 50.8455 21.8276 50.625 21.8276 50.3933V50.3727H25.3795V55.1176C25.3795 56.1721 27.0108 56.1721 27.0108 55.1176V50.3727H28.9881V55.1176C28.9881 56.1721 30.6194 56.1721 30.6194 55.1176V50.3727H35.3666C34.3319 52.8549 33.6228 54.5596 33.5075 54.8368C33.1438 55.7111 34.4176 56.3839 34.9391 55.6026C35.1343 55.3101 36.5051 53.255 38.4236 50.3727H42.6762C43.9246 50.3727 44.9402 49.353 44.9402 48.0996C44.9402 45.7583 44.6886 43.6674 44.1721 41.7213C47.2063 37.1454 50.2564 32.5273 52.0499 29.7617C53.5646 30.6609 54.3777 32.4307 53.3314 34.0698L47.6366 42.9906C45.8013 45.8656 47.761 49.7716 51.146 50.0415C53.0301 50.1052 54.1963 51.5144 54.1963 53.3221V55.15C54.1963 56.2046 55.8275 56.2046 55.8275 55.15V53.3531C55.9156 52.1417 55.5305 50.9669 54.7414 50.0415V50.0415ZM2.45279 32.6474V35.3355C2.45279 36.3901 4.08406 36.3901 4.08406 35.3355V30.0529C4.59084 29.4899 5.17396 28.9784 5.8331 28.5191V29.8991C5.8331 30.9537 7.46438 30.9537 7.46438 29.8991V27.5634C8.09731 27.2523 8.78092 26.9766 9.51369 26.736V31.4262C9.51369 32.4808 11.145 32.4808 11.145 31.4262V26.2773C11.7808 26.1262 12.4483 25.998 13.1458 25.8914V27.7265C13.1458 28.781 14.777 28.781 14.777 27.7265V25.6885C15.7046 25.5978 16.6224 25.5742 17.5528 25.5537C17.7519 29.2838 16.231 32.4052 14.4693 35.5713C8.72622 36.1192 5.06891 38.4561 3.70234 40.7387C2.51021 39.7583 1.90109 38.6225 1.90109 37.8138C1.90109 37.8096 1.90055 37.8056 1.90044 37.8013C1.90022 37.7871 1.89924 37.7727 1.89826 37.7584C1.89728 37.744 1.8963 37.7297 1.89456 37.7155C1.89402 37.7114 1.89402 37.7072 1.89348 37.7031C1.70447 36.3228 1.70708 34.4913 2.45279 32.6474V32.6474ZM10.0115 42.7707C7.99171 42.7707 6.33815 42.3059 5.06249 41.6351C5.54905 40.7697 6.50997 39.8953 7.79476 39.1667C8.93959 38.5174 10.8129 37.7187 13.53 37.3248C12.7669 38.8348 12.0721 40.5089 11.612 42.6095C11.0833 42.7126 10.5481 42.7707 10.0115 42.7707V42.7707ZM1.90109 49.4118V41.2903C2.42592 41.8409 3.03232 42.3197 3.67917 42.7195V44.986C3.67917 46.0405 5.31045 46.0405 5.31045 44.986V43.5361C5.95708 43.7934 6.64211 43.9943 7.3541 44.1384V49.0485C7.3541 50.1031 8.98537 50.1031 8.98537 49.0485V44.3638C9.66518 44.4144 10.3503 44.4178 11.029 44.3453V46.1368C11.029 47.1913 12.6603 47.1913 12.6603 46.1368V44.043C13.3895 43.8516 14.0979 43.593 14.7765 43.2914V53.3112C13.305 53.9233 11.6673 54.3686 10.0115 54.3686C4.68665 54.3686 1.90109 51.1416 1.90109 49.4118ZM20.1963 50.0162C19.6335 50.4804 18.2374 51.5676 16.4078 52.5392V42.4598C17.962 41.5668 19.2768 40.5297 20.1963 39.7214V50.0162ZM21.8276 48.7414V37.8138C21.8276 37.0867 20.9074 36.7271 20.4134 37.2597C20.3736 37.3027 17.2646 40.6171 13.4205 42.0845C14.0899 39.5973 15.1322 37.728 16.1464 35.9135C17.2026 34.0239 18.2948 32.07 18.8577 29.544C19.5364 26.4984 19.2244 23.1904 17.9304 19.7119C17.0145 17.25 15.6018 14.6719 13.6114 11.8302C12.9395 10.8709 13.1601 10.3849 13.2327 10.2251C13.6443 9.31835 15.5025 8.08957 22.0181 7.38584C25.1608 7.04632 25.7702 4.808 25.7702 2.08454C25.7702 1.71206 30.229 1.73871 30.229 2.08454C30.229 4.88836 30.8677 7.04055 34.0808 7.4003C35.1488 7.5196 37.1366 7.74178 38.9421 8.22214C41.4701 8.89476 42.3101 9.69974 42.5695 10.2567C42.6584 10.4474 42.9289 11.0279 42.161 12.1811C38.8678 17.1272 35.6959 23.0582 37.1412 29.544C37.7895 32.4531 39.3646 34.9256 40.7357 37.5265C39.0873 41.4572 37.3862 45.5301 36.0468 48.7415H21.8276V48.7414ZM43.3091 48.0996C43.3091 48.4535 43.0252 48.7414 42.6763 48.7414H39.5093C40.5641 47.1558 41.7288 45.4035 42.924 43.6028C43.1822 44.9957 43.3091 46.4814 43.3091 48.0996V48.0996ZM38.2581 47.6768C42.5078 37.4936 47.6308 25.2811 48.1152 24.3612C48.6935 23.263 50.1232 22.8206 51.2211 23.3982C52.3086 23.97 52.7627 25.4037 52.1849 26.5007C52.1124 26.6385 51.8804 27.0126 51.5207 27.5759L50.2919 26.8697L50.6062 26.2948C51.1119 25.3694 49.6806 24.5868 49.1748 25.5123L47.7902 28.0453C47.297 28.9478 48.7215 29.7425 49.2215 28.8278L49.5093 28.3014L50.6352 28.9484C48.017 32.9791 42.6238 41.1128 38.2581 47.6768V47.6768Z" fill="#7E0306"/>
</g>
<defs>
<clipPath id="clip0_196_2478">
<rect width="56" height="56" fill="white"/>
</clipPath>
</defs>
</svg>
