<svg width="57" height="57" viewBox="0 0 57 57" fill="none" xmlns="http://www.w3.org/2000/svg">
<g clip-path="url(#clip0_196_3047)">
<path d="M53.8138 12.5386L13.7047 5.38412C11.947 5.06799 10.2395 6.29773 9.93465 8.04592L7.35142 22.8651H3.66129C1.91806 22.8651 0.5 24.2837 0.5 26.0264V48.2368C0.5 49.9795 1.91806 51.398 3.66129 51.398H44.5715C46.3148 51.398 47.7328 49.9795 47.7328 48.2368V40.427C48.9048 40.6361 50.0361 40.8827 51.1195 40.2346C51.9324 39.7482 52.5154 38.9096 52.6785 37.9752L56.4503 16.3357C56.7606 14.5559 55.5778 12.8524 53.8138 12.5386ZM11.7145 8.35618C11.8499 7.57986 12.6032 7.02212 13.3877 7.16212L53.4968 14.3166C54.2839 14.457 54.8105 15.2234 54.671 16.025L54.0486 19.5973L11.0903 11.9352L11.7145 8.35618ZM45.9264 48.2368C45.9264 48.9837 45.3185 49.5916 44.5715 49.5916H3.66129C2.91432 49.5916 2.30645 48.9837 2.30645 48.2368V26.0264C2.30645 25.2795 2.91432 24.6716 3.66129 24.6716H44.5715C45.3185 24.6716 45.9264 25.2795 45.9264 26.0264V48.2368ZM50.8991 37.665C50.6182 39.2713 48.8343 38.7886 47.7328 38.5921V26.0264C47.7328 24.2837 46.3148 22.8651 44.5715 22.8651H9.18542L10.7801 13.7146L13.3967 14.1811L53.7379 21.3766L50.8991 37.665Z" fill="#7E0306"/>
<path d="M21.7804 45.9803H16.5868C16.0882 45.9803 15.6836 45.5756 15.6836 45.0771C15.6836 44.5785 16.0882 44.1738 16.5868 44.1738H21.7804C22.2789 44.1738 22.6836 44.5785 22.6836 45.0771C22.6836 45.5756 22.2794 45.9803 21.7804 45.9803Z" fill="#7E0306"/>
<path d="M11.9132 45.9803H6.71963C6.22105 45.9803 5.81641 45.5756 5.81641 45.0771C5.81641 44.5785 6.22105 44.1738 6.71963 44.1738H11.9132C12.4118 44.1738 12.8164 44.5785 12.8164 45.0771C12.8164 45.5756 12.4118 45.9803 11.9132 45.9803Z" fill="#7E0306"/>
<path d="M31.6456 45.9803H26.4521C25.9535 45.9803 25.5488 45.5756 25.5488 45.0771C25.5488 44.5785 25.9535 44.1738 26.4521 44.1738H31.6456C32.1442 44.1738 32.5488 44.5785 32.5488 45.0771C32.5488 45.5756 32.1446 45.9803 31.6456 45.9803Z" fill="#7E0306"/>
<path d="M41.5128 45.9803H36.3192C35.8207 45.9803 35.416 45.5756 35.416 45.0771C35.416 44.5785 35.8207 44.1738 36.3192 44.1738H41.5128C42.0114 44.1738 42.416 44.5785 42.416 45.0771C42.416 45.5756 42.0114 45.9803 41.5128 45.9803Z" fill="#7E0306"/>
<path d="M14.2454 41.2948H7.70338C6.45828 41.2948 5.44531 40.2818 5.44531 39.0367V36.4426C5.44531 35.1975 6.45828 34.1846 7.70338 34.1846H14.2454C15.4905 34.1846 16.5035 35.1975 16.5035 36.4426V39.0367C16.5035 40.2813 15.4901 41.2948 14.2454 41.2948ZM7.70338 35.9906C7.45454 35.9906 7.25176 36.1929 7.25176 36.4422V39.0362C7.25176 39.2855 7.45454 39.4879 7.70338 39.4879H14.2454C14.4943 39.4879 14.6971 39.2855 14.6971 39.0362V36.4422C14.6971 36.1929 14.4943 35.9906 14.2454 35.9906H7.70338Z" fill="#7E0306"/>
</g>
<defs>
<clipPath id="clip0_196_3047">
<rect width="56" height="56" fill="white" transform="translate(0.5 0.366211)"/>
</clipPath>
</defs>
</svg>
