<svg width="56" height="56" viewBox="0 0 56 56" fill="none" xmlns="http://www.w3.org/2000/svg">
<path d="M25.0301 34.3639H14.1674C13.6187 34.3643 13.0975 34.1294 12.7429 33.7215C12.3884 33.3136 12.2359 32.7742 12.3263 32.2471L13.8812 23.1562C13.9529 22.7313 14.1775 22.3449 14.515 22.0665C14.8521 21.7881 15.2804 21.6359 15.7224 21.6367H23.4752H23.4748C23.9169 21.6359 24.3448 21.7881 24.6818 22.0661C25.0189 22.3441 25.2439 22.7297 25.316 23.1542L26.8709 32.2464V32.2468C26.9613 32.774 26.8093 33.3134 26.4543 33.7212C26.0997 34.1291 25.5785 34.3644 25.0298 34.364L25.0301 34.3639ZM23.4752 23.4548H15.7228L14.1679 32.5458H25.0327L23.4752 23.4548Z" fill="#7E0306"/>
<path d="M22.4004 23.4543H16.8005C16.2851 23.4543 15.8672 23.0473 15.8672 22.5452V19.818C15.8672 18.5188 16.5788 17.3183 17.7338 16.6687C18.8888 16.0193 20.3121 16.0193 21.4671 16.6687C22.622 17.3184 23.3337 18.5189 23.3337 19.818V22.5452C23.3337 22.7863 23.2354 23.0176 23.0604 23.1881C22.8854 23.3585 22.6479 23.4543 22.4004 23.4543ZM17.7338 21.6361H21.4671V19.818C21.4671 19.1682 21.1112 18.568 20.5338 18.2433C19.9563 17.9186 19.2446 17.9186 18.6671 18.2433C18.0896 18.568 17.7338 19.1682 17.7338 19.818V21.6361Z" fill="#7E0306"/>
<path d="M38.2658 43.4546H15.8663C15.3509 43.4546 14.933 43.0475 14.933 42.5455C14.933 42.0434 15.3509 41.6364 15.8663 41.6364H37.3325V9.81814H1.86661V41.6364H6.53317C7.04857 41.6364 7.46649 42.0434 7.46649 42.5455C7.46649 43.0475 7.04857 43.4546 6.53317 43.4546H1.86661C1.37162 43.4541 0.897464 43.2622 0.547487 42.9213C0.197511 42.5804 0.000415991 42.1185 0 41.6364V9.81816C0.000416631 9.33602 0.1975 8.87417 0.547487 8.53328C0.897475 8.19239 1.37164 8.00041 1.86661 8H37.3325C37.8275 8.00041 38.3017 8.19237 38.6516 8.53328C39.0016 8.87418 39.1987 9.33604 39.1991 9.81816V42.5455C39.1991 42.7866 39.1008 43.0179 38.9258 43.1883C38.7508 43.3588 38.5133 43.4546 38.2658 43.4546L38.2658 43.4546Z" fill="#7E0306"/>
<path d="M54.1331 43.4547H51.3332C50.8177 43.4547 50.3998 43.0476 50.3998 42.5456C50.3998 42.0436 50.8177 41.6365 51.3332 41.6365H54.1331V28.1092L50.5924 13.4536L39.2006 13.4544V41.6363H42.0006C42.516 41.6363 42.9339 42.0433 42.9339 42.5454C42.9339 43.0474 42.516 43.4545 42.0006 43.4545H38.2673C37.7519 43.4545 37.334 43.0474 37.334 42.5454V12.5453C37.334 12.0433 37.7519 11.6362 38.2673 11.6362H50.5966C51.0191 11.637 51.4283 11.7775 51.7583 12.034C52.0883 12.2904 52.3191 12.6484 52.4133 13.049L55.9478 27.6911V27.6915C55.9849 27.8274 56.0028 27.9679 56.0008 28.1087V41.636C56.0003 42.1181 55.8033 42.58 55.4533 42.9209C55.1033 43.2617 54.6291 43.4537 54.1341 43.4541L54.1331 43.4547Z" fill="#7E0306"/>
<path d="M46.6663 47.9999C45.1809 47.9999 43.7568 47.4253 42.7064 46.4025C41.6564 45.3794 41.0664 43.9922 41.0664 42.5454C41.0664 41.0985 41.6564 39.7114 42.7064 38.6882C43.7568 37.6655 45.1809 37.0908 46.6663 37.0908C48.1517 37.0908 49.5758 37.6655 50.6262 38.6882C51.6762 39.7114 52.2662 41.0985 52.2662 42.5454C52.2645 43.9914 51.6741 45.3782 50.6241 46.4004C49.5745 47.4232 48.1507 47.9983 46.6663 47.9999ZM46.6663 38.909C45.6763 38.909 44.7267 39.2921 44.0263 39.9739C43.3264 40.6562 42.933 41.5811 42.933 42.5454C42.933 43.5096 43.3264 44.4346 44.0263 45.1168C44.7267 45.7986 45.6763 46.1817 46.6663 46.1817C47.6562 46.1817 48.6059 45.7986 49.3062 45.1168C50.0062 44.4346 50.3995 43.5096 50.3995 42.5454C50.3987 41.5811 50.005 40.657 49.3049 39.9752C48.6049 39.2934 47.6562 38.9098 46.6663 38.909Z" fill="#7E0306"/>
<path d="M11.1995 47.9999C9.71408 47.9999 8.29001 47.4253 7.23957 46.4025C6.18959 45.3794 5.59961 43.9922 5.59961 42.5454C5.59961 41.0985 6.18959 39.7114 7.23957 38.6882C8.28997 37.6655 9.71408 37.0908 11.1995 37.0908C12.6849 37.0908 14.109 37.6655 15.1594 38.6882C16.2094 39.7114 16.7994 41.0985 16.7994 42.5454C16.7977 43.9914 16.2073 45.3782 15.1573 46.4004C14.1077 47.4232 12.6839 47.9983 11.1995 47.9999ZM11.1995 38.909C10.2095 38.909 9.2599 39.2921 8.55955 39.9739C7.85956 40.6562 7.46624 41.5811 7.46624 42.5454C7.46624 43.5096 7.85956 44.4346 8.55955 45.1168C9.25995 45.7986 10.2095 46.1817 11.1995 46.1817C12.1894 46.1817 13.1391 45.7986 13.8394 45.1168C14.5394 44.4346 14.9327 43.5096 14.9327 42.5454C14.9319 41.5811 14.5382 40.657 13.8382 39.9752C13.1381 39.2934 12.1894 38.9098 11.1995 38.909Z" fill="#7E0306"/>
<path d="M55.065 28.909H38.2653C37.7499 28.909 37.332 28.5019 37.332 27.9999C37.332 27.4979 37.7499 27.0908 38.2653 27.0908H55.065C55.5804 27.0908 55.9983 27.4979 55.9983 27.9999C55.9983 28.5019 55.5804 28.909 55.065 28.909Z" fill="#7E0306"/>
<path d="M55.0647 37.0912H50.3982C49.8828 37.0912 49.4648 36.6841 49.4648 36.1821V31.6366C49.4648 31.1346 49.8828 30.7275 50.3982 30.7275H55.0647C55.3122 30.7275 55.5497 30.8233 55.7247 30.9938C55.8997 31.1642 55.998 31.3956 55.998 31.6366V36.1821C55.998 36.4232 55.8997 36.6545 55.7247 36.825C55.5497 36.9954 55.3122 37.0912 55.0647 37.0912ZM51.3315 35.273H54.1314V32.5457H51.3315V35.273Z" fill="#7E0306"/>
<path d="M38.2658 13.4544H0.933313C0.417911 13.4544 0 13.0473 0 12.5453C0 12.0433 0.417911 11.6362 0.933313 11.6362H38.2658C38.7812 11.6362 39.1992 12.0433 39.1992 12.5453C39.1992 13.0473 38.7812 13.4544 38.2658 13.4544Z" fill="#7E0306"/>
<path d="M38.2659 39.8182H13.9997C13.4843 39.8182 13.0664 39.4111 13.0664 38.9091C13.0664 38.4071 13.4843 38 13.9997 38H38.2659C38.7813 38 39.1992 38.4071 39.1992 38.9091C39.1992 39.4111 38.7813 39.8182 38.2659 39.8182Z" fill="#7E0306"/>
<path d="M8.39982 39.8182H0.933313C0.417911 39.8182 0 39.4111 0 38.9091C0 38.4071 0.417911 38 0.933313 38H8.39982C8.91522 38 9.33313 38.4071 9.33313 38.9091C9.33313 39.4111 8.91522 39.8182 8.39982 39.8182Z" fill="#7E0306"/>
</svg>
