<svg width="56" height="56" viewBox="0 0 56 56" fill="none" xmlns="http://www.w3.org/2000/svg">
<path fill-rule="evenodd" clip-rule="evenodd" d="M18.9653 34.6224C18.8589 34.6224 18.7374 34.6072 18.631 34.5613C18.2967 34.4247 18.0839 34.1055 18.0839 33.7561V31.0357C16.8071 30.656 15.8652 29.4705 15.8652 28.0723V20.8384C15.8652 19.1366 17.2483 17.7383 18.9653 17.7383H31.0773C32.7791 17.7383 34.1774 19.1214 34.1774 20.8384V28.0723C34.1774 29.7741 32.7943 31.1724 31.0773 31.1724H22.7341L19.6038 34.3789C19.4213 34.5312 19.1934 34.6225 18.9655 34.6225L18.9653 34.6224ZM18.9653 19.4856C18.2205 19.4856 17.628 20.0938 17.628 20.8229V28.0568C17.628 28.8016 18.2361 29.3941 18.9653 29.3941C19.4514 29.3941 19.8467 29.7895 19.8467 30.2756V31.5977L21.7462 29.6674C21.9137 29.5 22.1416 29.4093 22.3695 29.4093H31.0773C31.8221 29.4093 32.4146 28.8011 32.4146 28.072V20.8381C32.4146 20.0933 31.8065 19.5008 31.0773 19.5008L18.9653 19.4856Z" fill="#7E0306"/>
<path fill-rule="evenodd" clip-rule="evenodd" d="M37.0333 38.1943C36.8054 38.1943 36.5774 38.103 36.41 37.9361L33.2792 34.7291H24.936C23.2343 34.7291 21.8359 33.346 21.8359 31.629V30.4435C21.8359 29.9574 22.2313 29.5621 22.7174 29.5621C23.2034 29.5621 23.5988 29.9574 23.5988 30.4435V31.629C23.5988 32.3737 24.2069 32.9663 24.9361 32.9663H33.6439C33.8718 32.9663 34.0997 33.0575 34.2671 33.2244L36.1667 35.1547V33.8325C36.1667 33.3465 36.562 32.9511 37.0481 32.9511C37.7928 32.9511 38.3854 32.343 38.3854 31.6138V24.3799C38.3854 23.6352 37.7772 23.0426 37.0481 23.0426H33.3857C32.8996 23.0426 32.5043 22.6473 32.5043 22.1612C32.5043 21.6751 32.8996 21.2798 33.3857 21.2798H37.0481C38.7499 21.2798 40.1482 22.6629 40.1482 24.3799V31.6138C40.1482 33.0121 39.2057 34.1971 37.9295 34.5772V37.2976C37.9295 37.647 37.7167 37.9662 37.3824 38.1028C37.2614 38.1785 37.155 38.1941 37.0335 38.1941L37.0333 38.1943Z" fill="#7E0306"/>
<path fill-rule="evenodd" clip-rule="evenodd" d="M50.8326 28.589C50.3465 28.589 49.9512 28.1936 49.9512 27.7075C49.9512 15.5956 40.1033 5.74813 27.9918 5.74813C15.8799 5.74813 6.03237 15.596 6.03237 27.7075C6.03237 28.1936 5.63704 28.589 5.15095 28.589C4.66486 28.589 4.26953 28.1936 4.26953 27.7075C4.26953 24.501 4.89278 21.401 6.13876 18.4829C7.33936 15.6561 9.04113 13.1182 11.2145 10.945C13.3877 8.77173 15.9256 7.05472 18.7524 5.86923C21.6704 4.63837 24.7858 4 27.9771 4C31.1684 4 34.2836 4.62325 37.2017 5.86923C40.0285 7.06983 42.5664 8.7716 44.7396 10.945C46.9129 13.1182 48.6299 15.6561 49.8154 18.4829C51.0462 21.4009 51.6846 24.5162 51.6846 27.7075C51.6997 28.1941 51.3195 28.589 50.8334 28.589H50.8326Z" fill="#7E0306"/>
<path fill-rule="evenodd" clip-rule="evenodd" d="M6.86887 40.5948H4.2856C1.91462 40.5948 0 38.6645 0 36.3092V31.3852C0 29.0142 1.93024 27.0996 4.2856 27.0996H6.88449C7.37057 27.0996 7.76591 27.4949 7.76591 27.981V39.7435C7.75027 40.1999 7.35546 40.5947 6.86885 40.5947L6.86887 40.5948ZM4.2856 28.848C2.88729 28.848 1.74773 29.9876 1.74773 31.3859V36.3093C1.74773 37.7076 2.88731 38.8472 4.2856 38.8472H6.00302V28.8475L4.2856 28.848Z" fill="#7E0306"/>
<path fill-rule="evenodd" clip-rule="evenodd" d="M51.7147 40.5947H49.1158C48.6297 40.5947 48.2344 40.1994 48.2344 39.7133V27.9508C48.2344 27.4647 48.6297 27.0693 49.1158 27.0693H51.7147C54.0857 27.0693 56.0003 28.9996 56.0003 31.3549V36.3091C56.0154 38.68 54.0857 40.5947 51.7147 40.5947V40.5947ZM49.9973 38.847H51.7147C53.113 38.847 54.2526 37.7074 54.2526 36.3091V31.3851C54.2526 29.9868 53.113 28.8473 51.7147 28.8473L49.9973 28.8478V38.847Z" fill="#7E0306"/>
<path fill-rule="evenodd" clip-rule="evenodd" d="M45.6664 49.7124H38.9947C38.5086 49.7124 38.1133 49.317 38.1133 48.8309C38.1133 48.3448 38.5086 47.9495 38.9947 47.9495H45.6664C48.0374 47.9495 49.952 45.746 49.952 43.0256V40.108C49.952 39.6219 50.3473 39.2266 50.8334 39.2266C51.3195 39.2266 51.7148 39.6219 51.7148 40.108V43.0412C51.7148 44.804 51.0916 46.4604 49.9822 47.7221C48.8275 48.9984 47.2925 49.7123 45.6664 49.7123L45.6664 49.7124Z" fill="#7E0306"/>
<path fill-rule="evenodd" clip-rule="evenodd" d="M36.6247 51.8248H31.7007C30.0594 51.8248 28.707 50.4875 28.707 48.8311C28.707 47.1898 30.0443 45.8374 31.7007 45.8374L36.6247 45.8369C38.266 45.8369 39.6184 47.1742 39.6184 48.8306C39.6184 50.487 38.2811 51.8248 36.6247 51.8248V51.8248ZM31.7007 47.5997C31.017 47.5997 30.4699 48.1619 30.4699 48.8306C30.4699 49.4992 31.0321 50.0614 31.7007 50.0614H36.6247C37.3084 50.0614 37.8555 49.4992 37.8555 48.8306C37.8555 48.162 37.2933 47.5997 36.6247 47.5997H31.7007Z" fill="#7E0306"/>
</svg>
